<?xml version="1.0" encoding="UTF-8" standalone="no"?>
<!-- Created with Inkscape (http://www.inkscape.org/) -->

<svg
   xmlns:dc="http://purl.org/dc/elements/1.1/"
   xmlns:cc="http://creativecommons.org/ns#"
   xmlns:rdf="http://www.w3.org/1999/02/22-rdf-syntax-ns#"
   xmlns:svg="http://www.w3.org/2000/svg"
   xmlns="http://www.w3.org/2000/svg"
   xmlns:sodipodi="http://sodipodi.sourceforge.net/DTD/sodipodi-0.dtd"
   xmlns:inkscape="http://www.inkscape.org/namespaces/inkscape"
   width="216"
   height="32"
   id="svg2"
   version="1.1"
   inkscape:version="0.48.5 r10040"
   sodipodi:docname="logo.svg">
  <defs
     id="defs4" />
  <sodipodi:namedview
     id="base"
     pagecolor="#ffffff"
     bordercolor="#666666"
     borderopacity="1.0"
     inkscape:pageopacity="0.0"
     inkscape:pageshadow="2"
     inkscape:zoom="3.959798"
     inkscape:cx="142.75195"
     inkscape:cy="25.63355"
     inkscape:document-units="px"
     inkscape:current-layer="text3002"
     showgrid="false"
     inkscape:window-width="1680"
     inkscape:window-height="1001"
     inkscape:window-x="0"
     inkscape:window-y="1"
     inkscape:window-maximized="1" />
  <metadata
     id="metadata7">
    <rdf:RDF>
      <cc:Work
         rdf:about="">
        <dc:format>image/svg+xml</dc:format>
        <dc:type
           rdf:resource="http://purl.org/dc/dcmitype/StillImage" />
        <dc:title></dc:title>
      </cc:Work>
    </rdf:RDF>
  </metadata>
  <g
     inkscape:label="Layer 1"
     inkscape:groupmode="layer"
     id="layer1"
     transform="translate(0,-1020.3622)">
    <path
       style="fill:#ffffff;fill-opacity:1;stroke:none"
       d="m 3.6266279,1020.8622 c -1.7310295,0 -3.12662705,1.3588 -3.12662705,3.0442 l 0,24.9116 c 0,1.6854 1.39559755,3.0442 3.12662705,3.0442 l 25.6011941,0 c 1.731029,0 3.126627,-1.3588 3.126627,-3.0442 l 0,-24.9116 c 0,-1.6854 -1.395598,-3.0442 -3.126627,-3.0442 l -1.532357,0 c 0.318988,0.5211 0.617108,1.0776 0.866788,1.6578 2.768688,6.433 1.136245,19.0049 -4.22559,22.2139 l 2.306274,0.9193 -4.813767,1.9742 0.944179,-2.2455 c -6.109659,1.4714 -16.4554195,-6.2262 -19.2241128,-12.6592 -1.763497,-4.0975 -1.1945771,-8.4499 1.0834846,-11.8605 l -1.0060929,0 z"
       id="rect2998"
       inkscape:export-filename="/Users/rpereira/Projects/MondoStudio/MondoStudio/src/assets/img/logo.png"
       inkscape:export-xdpi="44.803112"
       inkscape:export-ydpi="44.803112"
       inkscape:connector-curvature="0" />
    <g
       transform="scale(1.0134414,0.98673684)"
       style="font-size:31.25195885px;font-style:normal;font-weight:normal;line-height:125%;letter-spacing:0px;word-spacing:0px;fill:#000000;fill-opacity:1;stroke:none;font-family:Sans"
       id="text3002">
      <path
         d="m 48.682538,1062.0142 -5.37143,-17.503 -0.137338,0 c 0.193283,3.5607 0.289928,5.9361 0.289935,7.1263 l 0,10.3767 -4.226949,0 0,-22.3098 6.439612,0 5.279872,17.0604 0.09156,0 5.600327,-17.0604 6.439612,0 0,22.3098 -4.410066,0 0,-10.5598 c -2.3e-5,-0.4985 0.0051,-1.0732 0.01526,-1.7243 0.02032,-0.6511 0.09154,-2.3805 0.213637,-5.1883 l -0.137338,0 -5.752924,17.4724 -4.333768,0"
         style="font-weight:bold;fill:#ffffff;-inkscape-font-specification:Open Sans Bold"
         id="path3049" />
      <path
         d="m 70.013466,1053.4534 c -6e-6,1.6888 0.274669,2.9655 0.824026,3.8302 0.559517,0.8648 1.464927,1.2971 2.716235,1.2971 1.241115,0 2.131266,-0.4273 2.670455,-1.2818 0.549338,-0.8647 0.824014,-2.1465 0.824027,-3.8455 -1.3e-5,-1.6887 -0.274689,-2.9552 -0.824027,-3.7996 -0.549362,-0.8444 -1.449686,-1.2666 -2.700974,-1.2666 -1.241135,0 -2.136372,0.4222 -2.685716,1.2666 -0.549357,0.8342 -0.824032,2.1007 -0.824026,3.7996 m 11.795783,0 c -1.8e-5,2.7773 -0.732485,4.9493 -2.197403,6.516 -1.46495,1.5666 -3.504667,2.35 -6.119158,2.35 -1.637887,0 -3.082475,-0.3561 -4.333768,-1.0682 -1.251303,-0.7223 -2.212666,-1.7549 -2.884092,-3.0978 -0.67143,-1.3428 -1.007144,-2.9095 -1.007143,-4.7 -10e-7,-2.7874 0.727379,-4.9543 2.182144,-6.5006 1.454757,-1.5463 3.499561,-2.3195 6.134418,-2.3195 1.637868,0 3.082455,0.3561 4.333767,1.0682 1.251284,0.7121 2.212647,1.7345 2.884092,3.0672 0.671411,1.3327 1.007125,2.8943 1.007143,4.6847"
         style="font-weight:bold;fill:#ffffff;-inkscape-font-specification:Open Sans Bold"
         id="path3051" />
      <path
         d="m 99.355758,1062.0142 -4.654222,0 0,-9.9647 c -1.4e-5,-1.2309 -0.218737,-2.1516 -0.656169,-2.762 -0.437459,-0.6205 -1.13432,-0.9308 -2.090585,-0.9308 -1.302175,0 -2.243192,0.4374 -2.823053,1.3123 -0.579878,0.8648 -0.869813,2.3043 -0.869806,4.3185 l 0,8.0267 -4.654222,0 0,-17.0604 3.555521,0 0.625649,2.1821 0.259416,0 c 0.518824,-0.824 1.230944,-1.4446 2.136364,-1.8617 0.915575,-0.4272 1.953237,-0.6409 3.112988,-0.6409 1.983753,0 3.48938,0.5392 4.516885,1.6175 1.027472,1.0682 1.541216,2.6146 1.541234,4.639 l 0,11.1244"
         style="font-weight:bold;fill:#ffffff;-inkscape-font-specification:Open Sans Bold"
         id="path3053" />
      <path
         d="m 107.53279,1062.3194 c -2.00412,0 -3.58096,-0.7783 -4.73052,-2.3348 -1.1394,-1.5565 -1.7091,-3.7132 -1.7091,-6.4701 0,-2.7976 0.57987,-4.9747 1.73962,-6.5312 1.1699,-1.5666 2.77726,-2.35 4.82207,-2.35 2.14653,0 3.78441,0.8342 4.91364,2.5026 l 0.1526,0 c -0.234,-1.2716 -0.35099,-2.4059 -0.35097,-3.4029 l 0,-5.463 4.66948,0 0,23.7442 -3.57078,0 -0.90033,-2.2127 -0.19837,0 c -1.05802,1.6786 -2.67047,2.5179 -4.83734,2.5179 m 1.63279,-3.7082 c 1.19025,0 2.06005,-0.3458 2.60942,-1.0376 0.55951,-0.6918 0.8647,-1.8668 0.91558,-3.525 l 0,-0.5036 c -1e-5,-1.8312 -0.28486,-3.1435 -0.85454,-3.937 -0.55954,-0.7935 -1.47512,-1.1903 -2.74676,-1.1903 -1.03767,0 -1.84644,0.4426 -2.4263,1.3276 -0.5697,0.8749 -0.85455,2.1517 -0.85454,3.8302 -1e-5,1.6786 0.28992,2.9401 0.8698,3.7844 0.57986,0.8342 1.40898,1.2513 2.48734,1.2513"
         style="font-weight:bold;fill:#ffffff;-inkscape-font-specification:Open Sans Bold"
         id="path3055" />
      <path
         d="m 123.56858,1053.4534 c 0,1.6888 0.27467,2.9655 0.82403,3.8302 0.55952,0.8648 1.46493,1.2971 2.71624,1.2971 1.24111,0 2.13126,-0.4273 2.67045,-1.2818 0.54934,-0.8647 0.82401,-2.1465 0.82403,-3.8455 -2e-5,-1.6887 -0.27469,-2.9552 -0.82403,-3.7996 -0.54936,-0.8444 -1.44969,-1.2666 -2.70097,-1.2666 -1.24114,0 -2.13638,0.4222 -2.68572,1.2666 -0.54936,0.8342 -0.82403,2.1007 -0.82403,3.7996 m 11.79579,0 c -2e-5,2.7773 -0.73249,4.9493 -2.19741,6.516 -1.46495,1.5666 -3.50466,2.35 -6.11915,2.35 -1.63789,0 -3.08248,-0.3561 -4.33377,-1.0682 -1.2513,-0.7223 -2.21267,-1.7549 -2.88409,-3.0978 -0.67143,-1.3428 -1.00715,-2.9095 -1.00715,-4.7 0,-2.7874 0.72738,-4.9543 2.18215,-6.5006 1.45475,-1.5463 3.49956,-2.3195 6.13442,-2.3195 1.63786,0 3.08245,0.3561 4.33376,1.0682 1.25129,0.7121 2.21265,1.7345 2.88409,3.0672 0.67142,1.3327 1.00713,2.8943 1.00715,4.6847"
         style="font-weight:bold;fill:#ffffff;-inkscape-font-specification:Open Sans Bold"
         id="path3057" />
      <path
         d="m 150.19464,1056.2612 c -1e-5,1.8617 -0.6867,3.3368 -2.06006,4.4254 -1.36322,1.0885 -3.17913,1.6328 -5.44773,1.6328 -2.72642,0 -4.817,-0.3002 -6.27176,-0.9004 l 0,-1.5565 c 1.60736,0.6816 3.65725,1.0224 6.14968,1.0224 1.83116,0 3.28083,-0.4171 4.34903,-1.2513 1.07834,-0.8443 1.61752,-1.9481 1.61753,-3.3113 -1e-5,-0.8444 -0.17804,-1.5413 -0.53409,-2.0906 -0.35607,-0.5595 -0.93594,-1.0682 -1.73961,-1.526 -0.80369,-0.4578 -1.98378,-0.9512 -3.54026,-1.4802 -2.2788,-0.7833 -3.85564,-1.6277 -4.73052,-2.5331 -0.86473,-0.9156 -1.29708,-2.1313 -1.29708,-3.6471 0,-1.6684 0.65108,-3.0265 1.95324,-4.0743 1.31234,-1.058 2.99599,-1.587 5.05098,-1.587 2.09566,0 4.06417,0.3967 5.90552,1.1902 l -0.56461,1.3429 c -1.85153,-0.7732 -3.62166,-1.1597 -5.31039,-1.1598 -1.64806,10e-5 -2.9604,0.3815 -3.93701,1.1445 -0.97663,0.763 -1.46494,1.8007 -1.46494,3.113 0,0.824 0.14751,1.5006 0.44253,2.0295 0.30519,0.5291 0.79859,1.0072 1.4802,1.4345 0.68159,0.4171 1.85151,0.9206 3.50974,1.5107 1.7396,0.6002 3.04685,1.1852 3.92175,1.7549 0.87488,0.5595 1.5107,1.2004 1.90747,1.9227 0.40691,0.7121 0.61038,1.5768 0.61039,2.5941"
         style="font-variant:normal;font-weight:300;font-stretch:normal;text-align:start;line-height:125%;letter-spacing:-2.04700326999999982px;writing-mode:lr-tb;text-anchor:start;fill:#ffffff;font-family:Open Sans;-inkscape-font-specification:Open Sans Light"
         id="path3059" />
      <path
         d="m 156.86095,1060.9765 c 0.95627,0 1.79047,-0.081 2.5026,-0.2442 l 0,1.2208 c -0.73248,0.2442 -1.57685,0.3663 -2.53312,0.3663 -1.46494,0 -2.54838,-0.3917 -3.25032,-1.175 -0.69178,-0.7834 -1.03767,-2.0143 -1.03767,-3.6929 l 0,-10.7123 -2.45681,0 0,-0.8851 2.45681,-0.6867 0.76299,-3.7539 0.77825,0 0,4.0133 4.86786,0 0,1.3124 -4.86786,0 0,10.4987 c -10e-6,1.2716 0.2238,2.2126 0.67143,2.823 0.44761,0.6104 1.14956,0.9156 2.10584,0.9156"
         style="font-variant:normal;font-weight:300;font-stretch:normal;text-align:start;line-height:125%;letter-spacing:-2.04700326999999982px;writing-mode:lr-tb;text-anchor:start;fill:#ffffff;font-family:Open Sans;-inkscape-font-specification:Open Sans Light"
         id="path3061" />
      <path
         d="m 162.24544,1045.4268 0,10.7429 c 0,1.6684 0.35097,2.8841 1.05292,3.6471 0.70195,0.7528 1.79047,1.1292 3.26559,1.1292 1.97358,0 3.42326,-0.4985 4.34903,-1.4955 0.93592,-0.9969 1.40388,-2.6196 1.40389,-4.8678 l 0,-9.1559 1.49546,0 0,16.5874 -1.28182,0 -0.27467,-2.289 -0.0916,0 c -1.07837,1.7294 -2.99601,2.5942 -5.75293,2.5942 -3.77425,0 -5.66137,-2.0194 -5.66136,-6.0582 l 0,-10.8344 1.49545,0"
         style="font-variant:normal;font-weight:300;font-stretch:normal;text-align:start;line-height:125%;letter-spacing:-2.04700326999999982px;writing-mode:lr-tb;text-anchor:start;fill:#ffffff;font-family:Open Sans;-inkscape-font-specification:Open Sans Light"
         id="path3063" />
      <path
         d="m 183.39326,1045.1064 c 1.20043,0 2.23809,0.2187 3.11299,0.6561 0.87488,0.4375 1.65821,1.1852 2.35,2.2432 l 0.0916,0 c -0.061,-1.2818 -0.0916,-2.5382 -0.0916,-3.7691 l 0,-5.9666 1.49546,0 0,23.7442 -0.99189,0 -0.38149,-2.5332 -0.12208,0 c -1.26148,1.8923 -3.07231,2.8384 -5.43247,2.8384 -2.28897,0 -4.03875,-0.7122 -5.24935,-2.1364 -1.21061,-1.4242 -1.81591,-3.4996 -1.81591,-6.226 0,-2.8688 0.60021,-5.0611 1.80065,-6.5769 1.20043,-1.5158 2.94512,-2.2737 5.23409,-2.2737 m 0,1.3733 c -1.81083,10e-5 -3.17403,0.6359 -4.08961,1.9075 -0.90541,1.2717 -1.35812,3.1181 -1.35812,5.5393 0,4.7 1.82608,7.05 5.47825,7.05 1.87185,0 3.24523,-0.5443 4.12013,-1.6328 0.87488,-1.0885 1.31233,-2.8841 1.31234,-5.3867 l 0,-0.2594 c -10e-6,-2.5636 -0.43237,-4.405 -1.29708,-5.524 -0.85455,-1.1292 -2.24319,-1.6938 -4.16591,-1.6939"
         style="font-variant:normal;font-weight:300;font-stretch:normal;text-align:start;line-height:125%;letter-spacing:-2.04700326999999982px;writing-mode:lr-tb;text-anchor:start;fill:#ffffff;font-family:Open Sans;-inkscape-font-specification:Open Sans Light"
         id="path3065" />
      <path
         d="m 195.40048,1062.0142 -1.51071,0 0,-16.5874 1.51071,0 0,16.5874 m -1.72435,-21.1958 c 0,-0.9766 0.32045,-1.4649 0.96137,-1.465 0.31536,10e-5 0.55952,0.1272 0.73246,0.3815 0.18312,0.2544 0.27468,0.6155 0.27468,1.0835 0,0.4578 -0.0916,0.8189 -0.27468,1.0834 -0.17294,0.2645 -0.4171,0.3968 -0.73246,0.3968 -0.64092,0 -0.96137,-0.4934 -0.96137,-1.4802"
         style="font-variant:normal;font-weight:300;font-stretch:normal;text-align:start;line-height:125%;letter-spacing:-2.04700326999999982px;writing-mode:lr-tb;text-anchor:start;fill:#ffffff;font-family:Open Sans;-inkscape-font-specification:Open Sans Light"
         id="path3067" />
      <path
         d="m 212.64179,1053.6976 c -2e-5,2.7061 -0.65619,4.8221 -1.96851,6.3481 -1.31235,1.5158 -3.12317,2.2737 -5.43247,2.2737 -1.45477,0 -2.73659,-0.351 -3.84545,-1.053 -1.10888,-0.7019 -1.95834,-1.7091 -2.54838,-3.0214 -0.59005,-1.3123 -0.88507,-2.8281 -0.88507,-4.5474 0,-2.7061 0.65617,-4.8119 1.96851,-6.3175 1.31233,-1.5158 3.11298,-2.2737 5.40195,-2.2737 2.27878,0 4.06417,0.7681 5.35617,2.3042 1.30215,1.526 1.95323,3.6216 1.95325,6.287 m -13.09286,0 c -1e-5,2.2788 0.49848,4.0591 1.49545,5.3409 1.00714,1.2717 2.42629,1.9075 4.25747,1.9075 1.83116,0 3.24523,-0.6358 4.24221,-1.9075 1.00713,-1.2818 1.5107,-3.0621 1.51072,-5.3409 -2e-5,-2.289 -0.50868,-4.0642 -1.52598,-5.3257 -1.00716,-1.2614 -2.42631,-1.8921 -4.25747,-1.8922 -1.83118,10e-5 -3.24524,0.6308 -4.24221,1.8922 -0.9868,1.2514 -1.4802,3.0266 -1.48019,5.3257"
         style="font-variant:normal;font-weight:300;font-stretch:normal;text-align:start;line-height:125%;letter-spacing:-2.04700326999999982px;writing-mode:lr-tb;text-anchor:start;fill:#ffffff;font-family:Open Sans;-inkscape-font-specification:Open Sans Light"
         id="path3069" />
    </g>
  </g>
</svg>
