<?xml version="1.0" standalone="no"?>
<!DOCTYPE svg PUBLIC "-//W3C//DTD SVG 20010904//EN"
 "http://www.w3.org/TR/2001/REC-SVG-20010904/DTD/svg10.dtd">
<svg version="1.0" xmlns="http://www.w3.org/2000/svg"
 width="300.000000pt" height="300.000000pt" viewBox="0 0 300.000000 300.000000"
 preserveAspectRatio="xMidYMid meet">
<metadata>
Created by potrace 1.11, written by Peter Selinger 2001-2013
</metadata>
<g transform="translate(0.000000,300.000000) scale(0.100000,-0.100000)"
fill="#000000" stroke="none">
<path d="M231 2989 c-88 -17 -163 -79 -205 -169 -21 -45 -21 -47 -21 -1320 l0
-1275 28 -57 c32 -64 80 -111 146 -142 l46 -21 1275 0 1275 0 46 21 c66 31
114 78 146 142 l28 57 0 1275 0 1275 -21 46 c-31 65 -78 114 -140 145 -45 22
-72 27 -164 32 l-109 5 39 -74 c146 -274 202 -736 144 -1185 -61 -475 -232
-858 -458 -1025 l-39 -29 44 -18 c24 -10 70 -29 102 -42 31 -13 57 -26 57 -30
0 -5 -433 -189 -437 -186 -1 1 15 45 37 96 22 52 40 100 40 106 0 8 -13 9 -42
3 -325 -63 -874 195 -1302 610 -190 185 -338 376 -425 549 -79 157 -131 375
-131 550 0 207 60 435 159 605 l40 67 -57 -1 c-31 -1 -77 -5 -101 -10z"/>
</g>
</svg>
